<svg width="146" height="59" viewBox="0 0 146 59" fill="none" xmlns="http://www.w3.org/2000/svg">
<path d="M112 12.5088L116 17.3356L120 12.5088" stroke="#151D48" stroke-width="2" stroke-linecap="round" stroke-linejoin="round"/>
<path d="M6.846 47.0596H2.59L1.806 49.2296H0.462L3.99 39.5276H5.46L8.974 49.2296H7.63L6.846 47.0596ZM6.482 46.0236L4.718 41.0956L2.954 46.0236H6.482ZM10.0356 45.3656C10.0356 44.5816 10.1943 43.8956 10.5116 43.3076C10.8289 42.7103 11.2629 42.2483 11.8136 41.9216C12.3736 41.5949 12.9989 41.4316 13.6896 41.4316C14.2869 41.4316 14.8423 41.5716 15.3556 41.8516C15.8689 42.1223 16.2609 42.4816 16.5316 42.9296V38.8696H17.8196V49.2296H16.5316V47.7876C16.2796 48.2449 15.9063 48.6229 15.4116 48.9216C14.9169 49.2109 14.3383 49.3556 13.6756 49.3556C12.9943 49.3556 12.3736 49.1876 11.8136 48.8516C11.2629 48.5156 10.8289 48.0443 10.5116 47.4376C10.1943 46.8309 10.0356 46.1403 10.0356 45.3656ZM16.5316 45.3796C16.5316 44.8009 16.4149 44.2969 16.1816 43.8676C15.9483 43.4383 15.6309 43.1116 15.2296 42.8876C14.8376 42.6543 14.4036 42.5376 13.9276 42.5376C13.4516 42.5376 13.0176 42.6496 12.6256 42.8736C12.2336 43.0976 11.9209 43.4243 11.6876 43.8536C11.4543 44.2829 11.3376 44.7869 11.3376 45.3656C11.3376 45.9536 11.4543 46.4669 11.6876 46.9056C11.9209 47.3349 12.2336 47.6663 12.6256 47.8996C13.0176 48.1236 13.4516 48.2356 13.9276 48.2356C14.4036 48.2356 14.8376 48.1236 15.2296 47.8996C15.6309 47.6663 15.9483 47.3349 16.1816 46.9056C16.4149 46.4669 16.5316 45.9583 16.5316 45.3796ZM29.1985 41.4176C29.7959 41.4176 30.3279 41.5436 30.7945 41.7956C31.2612 42.0383 31.6299 42.4069 31.9005 42.9016C32.1712 43.3963 32.3065 43.9983 32.3065 44.7076V49.2296H31.0465V44.8896C31.0465 44.1243 30.8552 43.5409 30.4725 43.1396C30.0992 42.7289 29.5905 42.5236 28.9465 42.5236C28.2839 42.5236 27.7565 42.7383 27.3645 43.1676C26.9725 43.5876 26.7765 44.1989 26.7765 45.0016V49.2296H25.5165V44.8896C25.5165 44.1243 25.3252 43.5409 24.9425 43.1396C24.5692 42.7289 24.0605 42.5236 23.4165 42.5236C22.7539 42.5236 22.2265 42.7383 21.8345 43.1676C21.4425 43.5876 21.2465 44.1989 21.2465 45.0016V49.2296H19.9725V41.5576H21.2465V42.6636C21.4985 42.2623 21.8345 41.9543 22.2545 41.7396C22.6839 41.5249 23.1552 41.4176 23.6685 41.4176C24.3125 41.4176 24.8819 41.5623 25.3765 41.8516C25.8712 42.1409 26.2399 42.5656 26.4825 43.1256C26.6972 42.5843 27.0519 42.1643 27.5465 41.8656C28.0412 41.5669 28.5919 41.4176 29.1985 41.4176ZM35.0544 40.3116C34.8117 40.3116 34.6064 40.2276 34.4384 40.0596C34.2704 39.8916 34.1864 39.6863 34.1864 39.4436C34.1864 39.2009 34.2704 38.9956 34.4384 38.8276C34.6064 38.6596 34.8117 38.5756 35.0544 38.5756C35.2877 38.5756 35.4837 38.6596 35.6424 38.8276C35.8104 38.9956 35.8944 39.2009 35.8944 39.4436C35.8944 39.6863 35.8104 39.8916 35.6424 40.0596C35.4837 40.2276 35.2877 40.3116 35.0544 40.3116ZM35.6704 41.5576V49.2296H34.3964V41.5576H35.6704ZM41.5797 41.4176C42.513 41.4176 43.269 41.7023 43.8477 42.2716C44.4263 42.8316 44.7157 43.6436 44.7157 44.7076V49.2296H43.4557V44.8896C43.4557 44.1243 43.2643 43.5409 42.8817 43.1396C42.499 42.7289 41.9763 42.5236 41.3137 42.5236C40.6417 42.5236 40.105 42.7336 39.7037 43.1536C39.3117 43.5736 39.1157 44.1849 39.1157 44.9876V49.2296H37.8417V41.5576H39.1157V42.6496C39.3677 42.2576 39.7083 41.9543 40.1377 41.7396C40.5763 41.5249 41.057 41.4176 41.5797 41.4176Z" fill="#737791"/>
<path d="M7.904 18.1697H3.248L2.448 20.4417H0.544L4.528 9.30565H6.64L10.624 20.4417H8.704L7.904 18.1697ZM7.392 16.6817L5.584 11.5136L3.76 16.6817H7.392ZM16.8043 11.4817C17.4976 11.4817 18.1163 11.6257 18.6603 11.9136C19.2149 12.2016 19.6469 12.6283 19.9563 13.1937C20.2656 13.759 20.4203 14.4417 20.4203 15.2417V20.4417H18.6123V15.5136C18.6123 14.7243 18.4149 14.1216 18.0203 13.7056C17.6256 13.279 17.0869 13.0656 16.4043 13.0656C15.7216 13.0656 15.1776 13.279 14.7723 13.7056C14.3776 14.1216 14.1803 14.7243 14.1803 15.5136V20.4417H12.3563V11.6257H14.1803V12.6336C14.4789 12.271 14.8576 11.9883 15.3163 11.7857C15.7856 11.583 16.2816 11.4817 16.8043 11.4817ZM25.9469 20.5857C25.2535 20.5857 24.6295 20.463 24.0749 20.2177C23.5309 19.9617 23.0989 19.6203 22.7789 19.1937C22.4589 18.7563 22.2882 18.271 22.2669 17.7377H24.1549C24.1869 18.111 24.3629 18.4257 24.6829 18.6817C25.0135 18.927 25.4242 19.0497 25.9149 19.0497C26.4269 19.0497 26.8215 18.9537 27.0989 18.7617C27.3869 18.559 27.5309 18.303 27.5309 17.9937C27.5309 17.663 27.3709 17.4177 27.0509 17.2577C26.7415 17.0977 26.2455 16.9217 25.5629 16.7297C24.9015 16.5483 24.3629 16.3723 23.9469 16.2017C23.5309 16.031 23.1682 15.7697 22.8589 15.4177C22.5602 15.0657 22.4109 14.6017 22.4109 14.0257C22.4109 13.5563 22.5495 13.1296 22.8269 12.7456C23.1042 12.351 23.4989 12.0417 24.0109 11.8176C24.5335 11.5937 25.1309 11.4817 25.8029 11.4817C26.8055 11.4817 27.6109 11.7377 28.2189 12.2497C28.8375 12.751 29.1682 13.439 29.2109 14.3137H27.3869C27.3549 13.919 27.1949 13.6043 26.9069 13.3696C26.6189 13.135 26.2295 13.0177 25.7389 13.0177C25.2589 13.0177 24.8909 13.1083 24.6349 13.2896C24.3789 13.471 24.2509 13.711 24.2509 14.0097C24.2509 14.2443 24.3362 14.4417 24.5069 14.6017C24.6775 14.7617 24.8855 14.8897 25.1309 14.9857C25.3762 15.071 25.7389 15.183 26.2189 15.3217C26.8589 15.4923 27.3815 15.6683 27.7869 15.8497C28.2029 16.0203 28.5602 16.2763 28.8589 16.6177C29.1575 16.959 29.3122 17.4123 29.3229 17.9777C29.3229 18.479 29.1842 18.927 28.9069 19.3217C28.6295 19.7163 28.2349 20.0257 27.7229 20.2497C27.2215 20.4737 26.6295 20.5857 25.9469 20.5857ZM39.3738 15.8177C39.3738 16.1483 39.3524 16.447 39.3098 16.7137H32.5738C32.6271 17.4177 32.8884 17.983 33.3578 18.4097C33.8271 18.8363 34.4031 19.0497 35.0858 19.0497C36.0671 19.0497 36.7604 18.639 37.1658 17.8177H39.1337C38.8671 18.6283 38.3818 19.295 37.6778 19.8177C36.9844 20.3297 36.1204 20.5857 35.0858 20.5857C34.2431 20.5857 33.4858 20.399 32.8138 20.0257C32.1524 19.6417 31.6298 19.1083 31.2458 18.4257C30.8724 17.7323 30.6858 16.9323 30.6858 16.0257C30.6858 15.119 30.8671 14.3243 31.2298 13.6417C31.6031 12.9483 32.1204 12.415 32.7818 12.0416C33.4538 11.6683 34.2218 11.4817 35.0858 11.4817C35.9178 11.4817 36.6591 11.663 37.3098 12.0257C37.9604 12.3883 38.4671 12.9003 38.8298 13.5617C39.1924 14.2123 39.3738 14.9643 39.3738 15.8177ZM37.4698 15.2417C37.4591 14.5697 37.2191 14.031 36.7498 13.6256C36.2804 13.2203 35.6991 13.0177 35.0058 13.0177C34.3764 13.0177 33.8378 13.2203 33.3898 13.6256C32.9418 14.0203 32.6751 14.559 32.5898 15.2417H37.4698ZM42.9928 8.60165V20.4417H41.1688V8.60165H42.9928ZM55.6078 9.32165V17.3377C55.6078 18.3297 55.3038 19.1137 54.6958 19.6897C54.0984 20.2657 53.3091 20.5537 52.3278 20.5537C51.3464 20.5537 50.5518 20.2657 49.9438 19.6897C49.3464 19.1137 49.0478 18.3297 49.0478 17.3377H50.8878C50.8984 17.8283 51.0211 18.2177 51.2558 18.5057C51.5011 18.7937 51.8584 18.9377 52.3278 18.9377C52.7971 18.9377 53.1544 18.7937 53.3998 18.5057C53.6451 18.207 53.7678 17.8177 53.7678 17.3377V9.32165H55.6078ZM62.399 20.5857C61.567 20.5857 60.815 20.399 60.143 20.0257C59.471 19.6417 58.943 19.1083 58.559 18.4257C58.175 17.7323 57.983 16.9323 57.983 16.0257C57.983 15.1297 58.1803 14.335 58.575 13.6417C58.9697 12.9483 59.5083 12.415 60.191 12.0416C60.8737 11.6683 61.6363 11.4817 62.479 11.4817C63.3217 11.4817 64.0843 11.6683 64.767 12.0416C65.4497 12.415 65.9883 12.9483 66.383 13.6417C66.7777 14.335 66.975 15.1297 66.975 16.0257C66.975 16.9217 66.7723 17.7163 66.367 18.4097C65.9617 19.103 65.407 19.6417 64.703 20.0257C64.0097 20.399 63.2417 20.5857 62.399 20.5857ZM62.399 19.0017C62.8683 19.0017 63.3057 18.8897 63.711 18.6657C64.127 18.4417 64.463 18.1057 64.719 17.6577C64.975 17.2097 65.103 16.6657 65.103 16.0257C65.103 15.3856 64.9803 14.847 64.735 14.4097C64.4897 13.9617 64.1643 13.6256 63.759 13.4016C63.3537 13.1776 62.9163 13.0656 62.447 13.0656C61.9777 13.0656 61.5403 13.1776 61.135 13.4016C60.7403 13.6256 60.4257 13.9617 60.191 14.4097C59.9563 14.847 59.839 15.3856 59.839 16.0257C59.839 16.975 60.079 17.711 60.559 18.2337C61.0497 18.7457 61.663 19.0017 62.399 19.0017ZM71.9781 20.5857C71.2848 20.5857 70.6608 20.463 70.1061 20.2177C69.5621 19.9617 69.1301 19.6203 68.8101 19.1937C68.4901 18.7563 68.3195 18.271 68.2981 17.7377H70.1861C70.2181 18.111 70.3941 18.4257 70.7141 18.6817C71.0448 18.927 71.4555 19.0497 71.9461 19.0497C72.4581 19.0497 72.8528 18.9537 73.1301 18.7617C73.4181 18.559 73.5621 18.303 73.5621 17.9937C73.5621 17.663 73.4021 17.4177 73.0821 17.2577C72.7728 17.0977 72.2768 16.9217 71.5941 16.7297C70.9328 16.5483 70.3941 16.3723 69.9781 16.2017C69.5621 16.031 69.1995 15.7697 68.8901 15.4177C68.5915 15.0657 68.4421 14.6017 68.4421 14.0257C68.4421 13.5563 68.5808 13.1296 68.8581 12.7456C69.1355 12.351 69.5301 12.0417 70.0421 11.8176C70.5648 11.5937 71.1621 11.4817 71.8341 11.4817C72.8368 11.4817 73.6421 11.7377 74.2501 12.2497C74.8688 12.751 75.1995 13.439 75.2421 14.3137H73.4181C73.3861 13.919 73.2261 13.6043 72.9381 13.3696C72.6501 13.135 72.2608 13.0177 71.7701 13.0177C71.2901 13.0177 70.9221 13.1083 70.6661 13.2896C70.4101 13.471 70.2821 13.711 70.2821 14.0097C70.2821 14.2443 70.3675 14.4417 70.5381 14.6017C70.7088 14.7617 70.9168 14.8897 71.1621 14.9857C71.4075 15.071 71.7701 15.183 72.2501 15.3217C72.8901 15.4923 73.4128 15.6683 73.8181 15.8497C74.2341 16.0203 74.5915 16.2763 74.8901 16.6177C75.1888 16.959 75.3435 17.4123 75.3541 17.9777C75.3541 18.479 75.2155 18.927 74.9381 19.3217C74.6608 19.7163 74.2661 20.0257 73.7541 20.2497C73.2528 20.4737 72.6608 20.5857 71.9781 20.5857ZM81.885 11.4817C82.557 11.4817 83.1543 11.6257 83.677 11.9136C84.2103 12.2016 84.6263 12.6283 84.925 13.1937C85.2343 13.759 85.389 14.4417 85.389 15.2417V20.4417H83.581V15.5136C83.581 14.7243 83.3837 14.1216 82.989 13.7056C82.5943 13.279 82.0557 13.0656 81.373 13.0656C80.6903 13.0656 80.1463 13.279 79.741 13.7056C79.3463 14.1216 79.149 14.7243 79.149 15.5136V20.4417H77.325V8.60165H79.149V12.6497C79.4583 12.2763 79.8477 11.9883 80.317 11.7857C80.797 11.583 81.3197 11.4817 81.885 11.4817ZM95.6516 11.6257L90.2436 24.5857H88.3556L90.1476 20.2977L86.6756 11.6257H88.7076L91.1876 18.3457L93.7636 11.6257H95.6516Z" fill="#151D48"/>
</svg>
