<svg width="77" height="78" viewBox="0 0 77 78" fill="none" xmlns="http://www.w3.org/2000/svg">
<g filter="url(#filter0_d_25_1350)">
<rect x="20" y="16" width="37" height="38" rx="10" fill="#00B207"/>
</g>
<path d="M46.3036 33.8036H40.5357C40.3483 33.8036 40.1964 33.6517 40.1964 33.4643V27.6964C40.1964 26.7596 39.4368 26 38.5 26C37.5632 26 36.8036 26.7596 36.8036 27.6964V33.4643C36.8036 33.6517 36.6517 33.8036 36.4643 33.8036H30.6964C29.7596 33.8036 29 34.5632 29 35.5C29 36.4368 29.7596 37.1964 30.6964 37.1964H36.4643C36.6517 37.1964 36.8036 37.3483 36.8036 37.5357V43.3036C36.8036 44.2404 37.5632 45 38.5 45C39.4368 45 40.1964 44.2404 40.1964 43.3036V37.5357C40.1964 37.3483 40.3483 37.1964 40.5357 37.1964H46.3036C47.2404 37.1964 48 36.4368 48 35.5C48 34.5632 47.2404 33.8036 46.3036 33.8036Z" fill="white"/>
<defs>
<filter id="filter0_d_25_1350" x="0" y="0" width="77" height="78" filterUnits="userSpaceOnUse" color-interpolation-filters="sRGB">
<feFlood flood-opacity="0" result="BackgroundImageFix"/>
<feColorMatrix in="SourceAlpha" type="matrix" values="0 0 0 0 0 0 0 0 0 0 0 0 0 0 0 0 0 0 127 0" result="hardAlpha"/>
<feOffset dy="4"/>
<feGaussianBlur stdDeviation="10"/>
<feColorMatrix type="matrix" values="0 0 0 0 0.93198 0 0 0 0 0.93198 0 0 0 0 0.93198 0 0 0 0.7 0"/>
<feBlend mode="normal" in2="BackgroundImageFix" result="effect1_dropShadow_25_1350"/>
<feBlend mode="normal" in="SourceGraphic" in2="effect1_dropShadow_25_1350" result="shape"/>
</filter>
</defs>
</svg>
