<svg width="28" height="28" viewBox="0 0 28 28" fill="none" xmlns="http://www.w3.org/2000/svg">
<rect x="0.5" y="0.5" width="27" height="27" rx="4.5" fill="#00B207" stroke="#00B207"/>
<path d="M18.9088 11.0907C18.7279 11.0907 18.5545 11.1625 18.4267 11.2904C18.2988 11.4182 18.227 11.5917 18.227 11.7725V19.4023C18.2074 19.7471 18.0524 20.0702 17.7957 20.3012C17.5391 20.5322 17.2015 20.6524 16.8566 20.6357H11.416C11.071 20.6524 10.7335 20.5322 10.4768 20.3012C10.2201 20.0702 10.0651 19.7471 10.0456 19.4023V11.7725C10.0456 11.5917 9.97374 11.4182 9.84588 11.2904C9.71802 11.1625 9.54461 11.0907 9.36379 11.0907C9.18297 11.0907 9.00956 11.1625 8.8817 11.2904C8.75384 11.4182 8.68201 11.5917 8.68201 11.7725V19.4023C8.70147 20.1088 9.00011 20.7788 9.51254 21.2655C10.025 21.7523 10.7094 22.0161 11.416 21.9992H16.8566C17.5631 22.0161 18.2476 21.7523 18.76 21.2655C19.2724 20.7788 19.5711 20.1088 19.5905 19.4023V11.7725C19.5905 11.5917 19.5187 11.4182 19.3909 11.2904C19.263 11.1625 19.0896 11.0907 18.9088 11.0907Z" fill="white"/>
<path d="M19.5903 9.04535H16.8632V7.68178C16.8632 7.50096 16.7914 7.32755 16.6635 7.19969C16.5356 7.07183 16.3622 7 16.1814 7H12.0907C11.9099 7 11.7365 7.07183 11.6086 7.19969C11.4807 7.32755 11.4089 7.50096 11.4089 7.68178V9.04535H8.68178C8.50096 9.04535 8.32755 9.11718 8.19969 9.24504C8.07183 9.3729 8 9.54631 8 9.72713C8 9.90795 8.07183 10.0814 8.19969 10.2092C8.32755 10.3371 8.50096 10.4089 8.68178 10.4089H19.5903C19.7711 10.4089 19.9446 10.3371 20.0724 10.2092C20.2003 10.0814 20.2721 9.90795 20.2721 9.72713C20.2721 9.54631 20.2003 9.3729 20.0724 9.24504C19.9446 9.11718 19.7711 9.04535 19.5903 9.04535ZM12.7725 9.04535V8.36357H15.4996V9.04535H12.7725Z" fill="white"/>
<path d="M13.4546 17.9086V13.1362C13.4546 12.9553 13.3828 12.7819 13.2549 12.6541C13.1271 12.5262 12.9537 12.4544 12.7728 12.4544C12.592 12.4544 12.4186 12.5262 12.2908 12.6541C12.1629 12.7819 12.0911 12.9553 12.0911 13.1362V17.9086C12.0911 18.0895 12.1629 18.2629 12.2908 18.3907C12.4186 18.5186 12.592 18.5904 12.7728 18.5904C12.9537 18.5904 13.1271 18.5186 13.2549 18.3907C13.3828 18.2629 13.4546 18.0895 13.4546 17.9086Z" fill="white"/>
<path d="M16.1814 17.9086V13.1362C16.1814 12.9553 16.1096 12.7819 15.9817 12.6541C15.8539 12.5262 15.6805 12.4544 15.4997 12.4544C15.3188 12.4544 15.1454 12.5262 15.0176 12.6541C14.8897 12.7819 14.8179 12.9553 14.8179 13.1362V17.9086C14.8179 18.0895 14.8897 18.2629 15.0176 18.3907C15.1454 18.5186 15.3188 18.5904 15.4997 18.5904C15.6805 18.5904 15.8539 18.5186 15.9817 18.3907C16.1096 18.2629 16.1814 18.0895 16.1814 17.9086Z" fill="white"/>
</svg>
