<svg width="16" height="22" viewBox="0 0 16 22" fill="none" xmlns="http://www.w3.org/2000/svg">
<path d="M8 0C3.58933 0 0 3.72717 0 8.30958C0 14.8207 7.248 21.5435 7.55644 21.8258C7.68356 21.9422 7.84178 22 8 22C8.15822 22 8.31644 21.9423 8.44355 21.8268C8.752 21.5435 16 14.8207 16 8.30958C16 3.72717 12.4107 0 8 0ZM8 12.8333C5.54933 12.8333 3.55556 10.7773 3.55556 8.25C3.55556 5.72275 5.54933 3.66667 8 3.66667C10.4507 3.66667 12.4444 5.72275 12.4444 8.25C12.4444 10.7773 10.4507 12.8333 8 12.8333Z" fill="#15481A" fill-opacity="0.43"/>
</svg>
