<svg width="32" height="33" viewBox="0 0 32 33" fill="none" xmlns="http://www.w3.org/2000/svg">
<path d="M25.3333 8.95262H22.6667C22.6667 5.21928 19.7333 2.28595 16 2.28595C12.2667 2.28595 9.33333 5.21928 9.33333 8.95262H6.66667C5.2 8.95262 4 10.1526 4 11.6193V27.6193C4 29.086 5.2 30.2859 6.66667 30.2859H25.3333C26.8 30.2859 28 29.086 28 27.6193V11.6193C28 10.1526 26.8 8.95262 25.3333 8.95262ZM16 4.95262C18.2667 4.95262 20 6.68595 20 8.95262H12C12 6.68595 13.7333 4.95262 16 4.95262ZM25.3333 27.6193H6.66667V11.6193H25.3333V27.6193ZM16 16.9526C13.7333 16.9526 12 15.2193 12 12.9526H9.33333C9.33333 16.686 12.2667 19.6193 16 19.6193C19.7333 19.6193 22.6667 16.686 22.6667 12.9526H20C20 15.2193 18.2667 16.9526 16 16.9526Z" fill="#737791"/>
</svg>
