<svg width="32" height="33" viewBox="0 0 32 33" fill="none" xmlns="http://www.w3.org/2000/svg">
<path fill-rule="evenodd" clip-rule="evenodd" d="M21.7747 23.1542L26.3371 17.8309C26.555 17.5823 26.6665 17.2686 26.6666 16.9531C26.6667 16.7373 26.6147 16.5207 26.5091 16.3238C26.4621 16.236 26.4047 16.1526 26.3371 16.0754L21.7747 10.7521C21.2955 10.1929 20.4538 10.1281 19.8947 10.6073C19.3356 11.0865 19.2708 11.9283 19.75 12.4874L22.4345 15.6197L12.1083 15.6197C11.3719 15.6197 10.775 16.2167 10.775 16.9531C10.775 17.6894 11.3719 18.2864 12.1083 18.2864L22.4347 18.2864L19.75 21.4189C19.2708 21.978 19.3356 22.8198 19.8947 23.299C20.4538 23.7782 21.2955 23.7134 21.7747 23.1542ZM13.3333 8.95304C14.0697 8.95304 14.6666 9.55 14.6666 10.2864L14.6666 12.2864C14.6666 13.0228 15.2636 13.6197 16 13.6197C16.7363 13.6197 17.3333 13.0228 17.3333 12.2864L17.3333 10.2864C17.3333 8.07724 15.5424 6.28638 13.3333 6.28638L9.33329 6.28638C7.12415 6.28638 5.33329 8.07724 5.33329 10.2864L5.33329 23.6197C5.33329 25.8288 7.12415 27.6197 9.33329 27.6197L13.3333 27.6197C15.5424 27.6197 17.3333 25.8288 17.3333 23.6197L17.3333 21.6197C17.3333 20.8833 16.7363 20.2864 16 20.2864C15.2636 20.2864 14.6666 20.8833 14.6666 21.6197L14.6666 23.6197C14.6666 24.3561 14.0697 24.953 13.3333 24.953L9.33329 24.953C8.59691 24.953 7.99996 24.3561 7.99996 23.6197L7.99996 10.2864C7.99996 9.55 8.59691 8.95304 9.33329 8.95304L13.3333 8.95304Z" fill="#737791"/>
</svg>
