<svg width="32" height="33" viewBox="0 0 32 33" fill="none" xmlns="http://www.w3.org/2000/svg">
<path d="M6.16664 17.9016C8.22174 17.9016 10.0317 16.8876 11.1492 15.3347C12.2261 16.8843 14.0127 17.9016 16.0392 17.9016C18.0603 17.9016 19.8456 16.8896 20.9234 15.3467C22.0343 16.8922 23.8449 17.9016 25.8893 17.9016C29.8109 17.9016 32.7768 14.0998 31.8187 10.2944L29.9491 2.86874C29.6652 1.74054 28.6535 0.952637 27.4896 0.952637H4.49627C3.33237 0.952637 2.32109 1.74054 2.03703 2.86881L0.179458 10.2502C-0.350515 12.3553 0.346091 14.1897 1.57636 15.8597V30.418C1.57636 31.8156 2.70432 32.9526 4.10265 32.9526H27.8926C29.2909 32.9526 30.4194 31.8155 30.4194 30.418V20.9765C30.4194 20.3641 29.9044 19.8676 29.2916 19.8676C28.6789 19.8676 28.1639 20.364 28.1639 20.9765V30.4181C28.1639 30.5928 28.0674 30.7647 27.8926 30.7647H20.919V22.1039C20.919 21.4915 20.4214 20.9869 19.8086 20.9869H12.1872C11.5745 20.9869 11.0769 21.4914 11.0769 22.1039V30.7647H4.10265C3.92789 30.7647 3.83186 30.5928 3.83186 30.4181V17.436C4.51534 17.7402 5.34215 17.9016 6.16664 17.9016ZM22.0125 3.14068H27.4896C27.6351 3.14068 27.7614 3.25404 27.797 3.39503L29.6662 10.828C30.2741 13.2426 28.3928 15.68 25.8983 15.68C23.7499 15.68 22.0125 13.9356 22.0125 11.7869V3.14068ZM12.3071 3.14068H19.8254V11.7869C19.8254 13.8744 18.1929 15.6837 16.062 15.6837C13.8963 15.6837 12.3071 13.8541 12.3071 11.7515V3.14068ZM13.3323 23.2433H18.6635V30.7647H13.3323V23.2433ZM2.32942 10.7914L4.18823 3.39517C4.22377 3.25411 4.35083 3.14074 4.49627 3.14074H10.0516V11.7516C10.0516 13.9189 8.30109 15.6822 6.13438 15.6837C3.61349 15.6822 1.71415 13.2357 2.32942 10.7914Z" fill="#737791"/>
</svg>
