<svg width="108" height="108" viewBox="0 0 108 108" fill="none" xmlns="http://www.w3.org/2000/svg">
<path d="M49.8855 6.69756C52.3389 4.91505 55.6611 4.91505 58.1145 6.69756L97.7158 35.4696C100.169 37.2521 101.196 40.4117 100.259 43.2959L85.1324 89.85C84.1953 92.7342 81.5076 94.6869 78.475 94.6869H29.525C26.4924 94.6869 23.8047 92.7342 22.8676 89.85L7.74126 43.2959C6.80414 40.4117 7.83074 37.2521 10.2842 35.4696L49.8855 6.69756Z" stroke="#00B207" stroke-width="6"/>
<path d="M62.1251 63.858H65.9109C66.4335 63.858 66.8573 63.4343 66.8573 62.9116V59.1259C66.8573 58.6031 66.4335 58.1794 65.9109 58.1794H62.1251C61.6025 58.1794 61.1787 58.6031 61.1787 59.1259V62.9116C61.1787 63.4343 61.6025 63.858 62.1251 63.858Z" fill="#00B207"/>
<path d="M54.5539 63.858H58.3396C58.8622 63.858 59.286 63.4343 59.286 62.9116V59.1259C59.286 58.6031 58.8622 58.1794 58.3396 58.1794H54.5539C54.0312 58.1794 53.6074 58.6031 53.6074 59.1259V62.9116C53.6074 63.4343 54.0312 63.858 54.5539 63.858Z" fill="#00B207"/>
<path d="M46.9826 58.1794C46.4599 58.1794 46.0361 58.6031 46.0361 59.1259V62.9116C46.0361 63.4343 46.4599 63.858 46.9826 63.858H50.7683C51.2909 63.858 51.7147 63.4343 51.7147 62.9116V59.1259C51.7147 58.6031 51.2909 58.1794 50.7683 58.1794H46.9826Z" fill="#00B207"/>
<path d="M55.4999 55.3403V51.5546C55.4999 51.0318 55.0761 50.6082 54.5534 50.6082H50.7677C50.2451 50.6082 49.8213 51.0318 49.8213 51.5546V55.3403C49.8213 55.863 50.2451 56.2867 50.7677 56.2867H54.5534C55.0761 56.2867 55.4999 55.863 55.4999 55.3403Z" fill="#00B207"/>
<path d="M63.0712 55.3403V51.5546C63.0712 51.0318 62.6474 50.6082 62.1247 50.6082H58.339C57.8163 50.6082 57.3926 51.0318 57.3926 51.5546V55.3403C57.3926 55.863 57.8163 56.2867 58.339 56.2867H62.1247C62.6474 56.2867 63.0712 55.863 63.0712 55.3403Z" fill="#00B207"/>
<path d="M46.0356 77.1081C43.9477 77.1081 42.2498 75.4093 42.2498 73.3223V67.6438C42.2498 66.1163 43.1639 64.8046 44.47 64.2068C44.2678 63.8167 44.1427 63.3806 44.1427 62.9116V59.1259C44.1427 57.5602 45.4163 56.2866 46.982 56.2866H48.1028C47.9967 55.9891 47.9284 55.6736 47.9284 55.3402V51.5545C47.9284 49.9888 49.202 48.7152 50.7677 48.7152H54.5534C55.2832 48.7152 55.9428 48.9996 56.4463 49.4536C56.9498 48.9996 57.6093 48.7152 58.3391 48.7152H62.1249C63.6905 48.7152 64.9641 49.9888 64.9641 51.5545V55.3402C64.9641 55.6736 64.8959 55.9891 64.7898 56.2866H65.9106C66.7817 56.2866 67.5526 56.6893 68.0739 57.3088C68.7502 56.6799 69.6489 56.2866 70.6427 56.2866H74.4284C75.4396 56.2866 76.3897 56.6803 77.1051 57.3957L80.1069 60.3975V43.0361H30.8926V77.1081C30.8926 78.1543 31.7392 79.0009 32.7854 79.0009H47.5062C47.012 78.4523 46.6115 77.8176 46.36 77.1081H46.0356Z" fill="#00B207"/>
<path d="M81.4452 64.4126L75.7666 58.734C75.4117 58.3791 74.9302 58.1794 74.4283 58.1794H70.6426C69.5973 58.1794 68.7497 59.0261 68.7497 60.0723V65.7509H46.0354C44.9901 65.7509 44.1426 66.5975 44.1426 67.6437V73.3223C44.1426 74.3686 44.9901 75.2152 46.0354 75.2152H47.9283C47.9283 77.3021 49.6261 79.0009 51.714 79.0009C53.8019 79.0009 55.4997 77.3021 55.4997 75.2152H70.6426C70.6426 77.3021 72.3404 79.0009 74.4283 79.0009C76.5162 79.0009 78.214 77.3021 78.214 75.2152H80.1069C81.1522 75.2152 81.9998 74.3686 81.9998 73.3223V65.7509C81.9998 65.2481 81.8001 64.7675 81.4452 64.4126ZM51.714 77.108C50.6705 77.108 49.8212 76.2596 49.8212 75.2152C49.8212 74.1708 50.6705 73.3223 51.714 73.3223C52.7575 73.3223 53.6069 74.1708 53.6069 75.2152C53.6069 76.2596 52.7575 77.108 51.714 77.108ZM74.4283 77.108C73.3848 77.108 72.5355 76.2596 72.5355 75.2152C72.5355 74.1708 73.3848 73.3223 74.4283 73.3223C75.4718 73.3223 76.3212 74.1708 76.3212 75.2152C76.3212 76.2596 75.4718 77.108 74.4283 77.108ZM70.6426 65.7509V61.0187C70.6426 60.496 71.0664 60.0723 71.589 60.0723H74.4283L80.1069 65.7509H70.6426Z" fill="#00B207"/>
<path d="M80.107 41.1433C80.9961 41.1433 81.7651 40.5241 81.9555 39.6571C82.1459 38.7883 81.7078 37.9048 80.9 37.5314L56.2929 26.1747C55.7901 25.9418 55.2096 25.9418 54.7069 26.1747L30.0997 37.5314C29.2919 37.9048 28.8538 38.7883 29.0442 39.6571C29.2346 40.5241 30.0036 41.1433 30.8927 41.1433H80.107Z" fill="#00B207"/>
</svg>
