<svg width="24" height="25" viewBox="0 0 24 25" fill="none" xmlns="http://www.w3.org/2000/svg">
<path fill-rule="evenodd" clip-rule="evenodd" d="M2.41667 0.616211C2.07094 0.616211 1.76798 0.857667 1.67701 1.20572L0.527014 5.60573C0.509085 5.67433 0.5 5.74509 0.5 5.81621C0.5 6.88241 0.944188 7.84037 1.65 8.49953V20.6162C1.65 22.8253 3.36624 24.6162 5.48333 24.6162H12C12.4234 24.6162 12.7667 24.2581 12.7667 23.8162C12.7667 23.3744 12.4234 23.0162 12 23.0162H5.48333C4.21308 23.0162 3.18333 21.9417 3.18333 20.6162V9.32701C3.4299 9.38537 3.6865 9.41621 3.95 9.41621C5.0338 9.41621 6.00083 8.89473 6.63333 8.07913C7.26583 8.89473 8.23287 9.41621 9.31667 9.41621C10.4005 9.41621 11.3675 8.89473 12 8.07913C12.6325 8.89473 13.5995 9.41621 14.6833 9.41621C15.7671 9.41621 16.7342 8.89473 17.3667 8.07913C17.9992 8.89473 18.9662 9.41621 20.05 9.41621C20.3135 9.41621 20.5701 9.38537 20.8167 9.32701V13.2162C20.8167 13.6581 21.1599 14.0162 21.5833 14.0162C22.0068 14.0162 22.35 13.6581 22.35 13.2162V8.49953C23.0558 7.84037 23.5 6.88241 23.5 5.81621C23.5 5.74509 23.4909 5.67433 23.473 5.60573L22.323 1.20572C22.232 0.857667 21.9291 0.616211 21.5833 0.616211H2.41667ZM9.31667 7.81621C8.25813 7.81621 7.4 6.92077 7.4 5.81621C7.4 5.37437 7.05676 5.01621 6.63333 5.01621C6.2099 5.01621 5.86667 5.37437 5.86667 5.81621C5.86667 6.92077 5.00854 7.81621 3.95 7.81621C2.92308 7.81621 2.08478 6.97349 2.03561 5.91461L3.00224 2.21621H20.9978L21.9644 5.91461C21.9152 6.97349 21.0769 7.81621 20.05 7.81621C18.9915 7.81621 18.1333 6.92077 18.1333 5.81621C18.1333 5.37437 17.7901 5.01621 17.3667 5.01621C16.9432 5.01621 16.6 5.37437 16.6 5.81621C16.6 6.92077 15.7419 7.81621 14.6833 7.81621C13.6248 7.81621 12.7667 6.92077 12.7667 5.81621C12.7667 5.37437 12.4234 5.01621 12 5.01621C11.5766 5.01621 11.2333 5.37437 11.2333 5.81621C11.2333 6.92077 10.3752 7.81621 9.31667 7.81621Z" fill="#737791"/>
<path fill-rule="evenodd" clip-rule="evenodd" d="M21.5833 17.0161C21.5833 17.8505 21.2773 18.6103 20.7759 19.18C22.3927 20.0396 23.5 21.7929 23.5 23.8161C23.5 24.258 23.1568 24.6161 22.7333 24.6161C22.3099 24.6161 21.9667 24.258 21.9667 23.8161C21.9667 21.8279 20.4221 20.2161 18.5167 20.2161C16.6113 20.2161 15.0667 21.8279 15.0667 23.8161C15.0667 24.258 14.7234 24.6161 14.3 24.6161C13.8766 24.6161 13.5333 24.258 13.5333 23.8161C13.5333 21.7929 14.6407 20.0396 16.2574 19.18C15.756 18.6103 15.45 17.8505 15.45 17.0161C15.45 15.2488 16.823 13.8161 18.5167 13.8161C20.2103 13.8161 21.5833 15.2488 21.5833 17.0161ZM16.9833 17.0161C16.9833 16.1325 17.6698 15.4161 18.5167 15.4161C19.3635 15.4161 20.05 16.1325 20.05 17.0161C20.05 17.8998 19.3635 18.6161 18.5167 18.6161C17.6698 18.6161 16.9833 17.8998 16.9833 17.0161Z" fill="#737791"/>
</svg>
