<svg width="96" height="96" viewBox="0 0 96 96" fill="none" xmlns="http://www.w3.org/2000/svg">
<path d="M43.8855 6.69756C46.3389 4.91505 49.6611 4.91505 52.1145 6.69756L86.0095 31.3237C88.4629 33.1062 89.4895 36.2658 88.5524 39.15L75.6057 78.9959C74.6685 81.8801 71.9808 83.8328 68.9483 83.8328H27.0517C24.0192 83.8328 21.3315 81.8801 20.3943 78.9959L7.4476 39.15C6.51048 36.2658 7.53709 33.1062 9.9905 31.3237L43.8855 6.69756Z" stroke="#00B207" stroke-width="6"/>
<path d="M44.3124 24.0545C47.2125 22.2975 50.8486 22.2975 53.7488 24.0545L65.8844 31.407C66.8851 32.0132 67.7426 32.7953 68.4272 33.7003C68.5989 33.9272 68.5268 34.2487 68.2835 34.3962L50.3236 45.2772C49.5291 45.7586 48.5329 45.7586 47.7383 45.2772L29.7779 34.3958C29.5345 34.2483 29.4625 33.9268 29.6342 33.6999C30.3187 32.7952 31.1762 32.0132 32.1768 31.407L44.3124 24.0545Z" fill="#00B207"/>
<path d="M28.6125 37.4834C28.3223 37.3076 27.9454 37.4668 27.8936 37.8021C27.8229 38.2589 27.7866 38.7243 27.7866 39.1946V54.5356C27.7866 57.72 29.4503 60.6731 32.1739 62.3232L44.3095 69.6756C45.1024 70.156 45.9503 70.505 46.8231 70.7227C47.125 70.798 47.4069 70.562 47.4069 70.251V50.2754C47.4069 49.4029 46.9511 48.5938 46.2049 48.1418L28.6125 37.4834Z" fill="#00B207"/>
<path d="M50.6528 70.2506C50.6528 70.5617 50.9348 70.7977 51.2367 70.7223C52.1089 70.5046 52.9564 70.1557 53.7487 69.6756L65.8844 62.3232C68.608 60.6731 70.2717 57.72 70.2717 54.5355V39.1946C70.2717 38.7244 70.2354 38.2592 70.1648 37.8026C70.1129 37.4672 69.736 37.308 69.4458 37.4838L51.8548 48.1414C51.1087 48.5935 50.6528 49.4025 50.6528 50.275V70.2506Z" fill="#00B207"/>
</svg>
