<svg width="56" height="60" viewBox="0 0 56 60" fill="none" xmlns="http://www.w3.org/2000/svg">
<rect width="56" height="56" rx="14" fill="#00B207"/>
<path d="M31.1903 31.5747C30.1552 30.3291 28.7819 29.643 27.3232 29.643C25.8646 29.643 24.4912 30.329 23.455 31.5761C22.4697 32.7671 21.1697 34.3361 20.2997 35.3859H34.3467C33.4765 34.3359 32.1762 32.7666 31.1903 31.5747Z" fill="white"/>
<path d="M18.3015 41.8869H36.3451C36.7495 41.8869 37.0775 41.4912 37.0775 41.0031V38.0374C37.0775 37.5493 36.7495 37.1536 36.3451 37.1536H18.3015C17.897 37.1536 17.569 37.5493 17.569 38.0374V41.0031C17.569 41.4912 17.897 41.8869 18.3015 41.8869Z" fill="white"/>
<path d="M29.7592 52.7101C30.8728 51.3664 32.4155 50.5955 33.9916 50.5955C35.3434 50.5955 36.6704 51.1632 37.7237 52.1728L36.5456 43.643C36.4795 43.6503 36.4127 43.6546 36.345 43.6546H18.3015C18.2338 43.6546 18.167 43.6503 18.1009 43.643L16.01 58.7817C15.9746 59.038 16.0344 59.3 16.1736 59.4983C16.3127 59.6965 16.5171 59.8108 16.7324 59.8108H25.6442C25.3618 58.8495 25.5586 57.7806 26.1613 57.0528C26.1613 57.0528 28.3663 54.3901 29.7592 52.7101Z" fill="white"/>
<path d="M40.7857 58.3023C40.7857 58.3023 38.581 55.64 37.1885 53.9606C36.3472 52.9454 35.182 52.3632 33.9915 52.3632C32.8011 52.3632 31.6359 52.9454 30.7947 53.9604C29.4021 55.64 27.1974 58.3022 27.1974 58.3022C26.988 58.555 26.9255 58.9351 27.0388 59.2653C27.1522 59.5955 27.4193 59.8108 27.7155 59.8108H40.2676C40.5638 59.8108 40.8308 59.5956 40.9442 59.2654C41.0576 58.9352 40.995 58.5551 40.7857 58.3023Z" fill="white"/>
</svg>
