<svg width="25" height="25" viewBox="0 0 25 25" fill="none" xmlns="http://www.w3.org/2000/svg">
<path d="M21.82 24.5383H16.38C14.9 24.5383 13.7 23.3383 13.7 21.8583V14.5383C13.7 14.0983 14.06 13.7383 14.5 13.7383H21.82C23.3 13.7383 24.5 14.9383 24.5 16.4183V21.8583C24.5 23.3383 23.3 24.5383 21.82 24.5383ZM15.3 15.3383V21.8583C15.3 22.4583 15.78 22.9383 16.38 22.9383H21.82C22.42 22.9383 22.9 22.4583 22.9 21.8583V16.4183C22.9 15.8183 22.42 15.3383 21.82 15.3383H15.3Z" fill="#737791"/>
<path d="M8.62 24.5383H3.18C1.7 24.5383 0.5 23.3383 0.5 21.8583V16.4183C0.5 14.9383 1.7 13.7383 3.18 13.7383H10.5C10.94 13.7383 11.3 14.0983 11.3 14.5383V21.8583C11.3 23.3383 10.1 24.5383 8.62 24.5383ZM3.18 15.3383C2.58 15.3383 2.1 15.8183 2.1 16.4183V21.8583C2.1 22.4583 2.58 22.9383 3.18 22.9383H8.62C9.22 22.9383 9.7 22.4583 9.7 21.8583V15.3383H3.18Z" fill="#737791"/>
<path d="M21.82 11.3383H14.5C14.06 11.3383 13.7 10.9783 13.7 10.5383V3.21833C13.7 1.73833 14.9 0.53833 16.38 0.53833H21.82C23.3 0.53833 24.5 1.73833 24.5 3.21833V8.65833C24.5 10.1383 23.3 11.3383 21.82 11.3383ZM15.3 9.73833H21.82C22.42 9.73833 22.9 9.25833 22.9 8.65833V3.21833C22.9 2.61833 22.42 2.13833 21.82 2.13833H16.38C15.78 2.13833 15.3 2.61833 15.3 3.21833V9.73833Z" fill="#737791"/>
<path d="M10.5 11.3383H3.18C1.7 11.3383 0.5 10.1383 0.5 8.65833V3.21833C0.5 1.73833 1.7 0.53833 3.18 0.53833H8.62C10.1 0.53833 11.3 1.73833 11.3 3.21833V10.5383C11.3 10.9783 10.94 11.3383 10.5 11.3383ZM3.18 2.13833C2.58 2.13833 2.1 2.61833 2.1 3.21833V8.65833C2.1 9.25833 2.58 9.73833 3.18 9.73833H9.7V3.21833C9.7 2.61833 9.22 2.13833 8.62 2.13833H3.18Z" fill="#737791"/>
</svg>
