<svg width="26" height="28" viewBox="0 0 26 28" fill="none" xmlns="http://www.w3.org/2000/svg">
<path d="M13 8.6198C14.4145 8.6198 15.7711 9.1817 16.7713 10.1819C17.7714 11.1821 18.3334 12.5386 18.3334 13.9531C18.3334 15.3676 17.7714 16.7242 16.7713 17.7244C15.7711 18.7246 14.4145 19.2865 13 19.2865C11.5855 19.2865 10.229 18.7246 9.22878 17.7244C8.22859 16.7242 7.66669 15.3676 7.66669 13.9531C7.66669 12.5386 8.22859 11.1821 9.22878 10.1819C10.229 9.1817 11.5855 8.6198 13 8.6198ZM13 11.2865C12.2928 11.2865 11.6145 11.5674 11.1144 12.0675C10.6143 12.5676 10.3334 13.2459 10.3334 13.9531C10.3334 14.6604 10.6143 15.3387 11.1144 15.8387C11.6145 16.3388 12.2928 16.6198 13 16.6198C13.7073 16.6198 14.3855 16.3388 14.8856 15.8387C15.3857 15.3387 15.6667 14.6604 15.6667 13.9531C15.6667 13.2459 15.3857 12.5676 14.8856 12.0675C14.3855 11.5674 13.7073 11.2865 13 11.2865ZM10.3334 27.2865C10 27.2865 9.72002 27.0465 9.66669 26.7265L9.17335 23.1931C8.33335 22.8598 7.61335 22.4065 6.92002 21.8731L3.60002 23.2198C3.30669 23.3265 2.94669 23.2198 2.78669 22.9265L0.120019 18.3131C0.0384136 18.1757 0.00964452 18.0133 0.0390923 17.8563C0.06854 17.6992 0.154188 17.5583 0.28002 17.4598L3.09335 15.2465L3.00002 13.9531L3.09335 12.6198L0.28002 10.4465C0.154188 10.348 0.06854 10.207 0.0390923 10.05C0.00964452 9.89292 0.0384136 9.73051 0.120019 9.59313L2.78669 4.9798C2.94669 4.68646 3.30669 4.56646 3.60002 4.68646L6.92002 6.0198C7.61335 5.4998 8.33335 5.04646 9.17335 4.71313L9.66669 1.1798C9.72002 0.859797 10 0.619797 10.3334 0.619797H15.6667C16 0.619797 16.28 0.859797 16.3334 1.1798L16.8267 4.71313C17.6667 5.04646 18.3867 5.4998 19.08 6.0198L22.4 4.68646C22.6934 4.56646 23.0534 4.68646 23.2134 4.9798L25.88 9.59313C26.0534 9.88646 25.9734 10.2465 25.72 10.4465L22.9067 12.6198L23 13.9531L22.9067 15.2865L25.72 17.4598C25.9734 17.6598 26.0534 18.0198 25.88 18.3131L23.2134 22.9265C23.0534 23.2198 22.6934 23.3398 22.4 23.2198L19.08 21.8865C18.3867 22.4065 17.6667 22.8598 16.8267 23.1931L16.3334 26.7265C16.28 27.0465 16 27.2865 15.6667 27.2865H10.3334ZM12 3.28646L11.5067 6.76646C9.90668 7.0998 8.49335 7.95313 7.46669 9.1398L4.25335 7.75313L3.25335 9.48646L6.06669 11.5531C5.53335 13.1087 5.53335 14.7976 6.06669 16.3531L3.24002 18.4331L4.24002 20.1665L7.48002 18.7798C8.50669 19.9531 9.90668 20.8065 11.4934 21.1265L11.9867 24.6198H14.0134L14.5067 21.1398C16.0934 20.8065 17.4934 19.9531 18.52 18.7798L21.76 20.1665L22.76 18.4331L19.9334 16.3665C20.4667 14.8065 20.4667 13.1131 19.9334 11.5531L22.7467 9.48646L21.7467 7.75313L18.5333 9.1398C17.4856 7.92689 16.0645 7.0967 14.4934 6.7798L14 3.28646H12Z" fill="#737791"/>
</svg>
