<svg width="196" height="60" viewBox="0 0 196 60" fill="none" xmlns="http://www.w3.org/2000/svg">
<path d="M27.5 41.5C33.8513 41.5 39 36.3513 39 30C39 23.6487 33.8513 18.5 27.5 18.5C21.1487 18.5 16 23.6487 16 30C16 36.3513 21.1487 41.5 27.5 41.5Z" fill="#F7931E"/>
<path d="M39 30C39 36.3633 33.8633 41.5 27.5 41.5C21.1367 41.5 16 36.3633 16 30H39Z" fill="#009245"/>
<path d="M39 30C39 28.6967 38.77 27.3934 38.31 26.1667H16.69C15.77 28.62 15.77 31.38 16.69 33.8334H38.3867C38.77 32.6067 39 31.3034 39 30Z" fill="#F0F0F0"/>
<path d="M27.5 26.9333C25.8133 26.9333 24.4333 28.3133 24.4333 30C24.4333 31.6867 25.8133 33.0667 27.5 33.0667C29.1867 33.0667 30.5667 31.6867 30.5667 30C30.5667 28.3133 29.1867 26.9333 27.5 26.9333ZM27.5 32.3C26.1967 32.3 25.2 31.3033 25.2 30C25.2 28.6967 26.1967 27.7 27.5 27.7C28.8033 27.7 29.8 28.6967 29.8 30C29.8 31.3033 28.8033 32.3 27.5 32.3Z" fill="#0071BC"/>
<path d="M27.5 31.5333C28.3468 31.5333 29.0333 30.8468 29.0333 30C29.0333 29.1532 28.3468 28.4667 27.5 28.4667C26.6531 28.4667 25.9666 29.1532 25.9666 30C25.9666 30.8468 26.6531 31.5333 27.5 31.5333Z" fill="#0071BC"/>
<path d="M56.762 25.97V29.12H60.992V31.118H56.762V34.448H61.532V36.5H54.242V23.918H61.532V25.97H56.762ZM69.3481 26.384C70.5361 26.384 71.4961 26.762 72.2281 27.518C72.9601 28.262 73.3261 29.306 73.3261 30.65V36.5H70.8061V30.992C70.8061 30.2 70.6081 29.594 70.2121 29.174C69.8161 28.742 69.2761 28.526 68.5921 28.526C67.8961 28.526 67.3441 28.742 66.9361 29.174C66.5401 29.594 66.3421 30.2 66.3421 30.992V36.5H63.8221V26.528H66.3421V27.77C66.6781 27.338 67.1041 27.002 67.6201 26.762C68.1481 26.51 68.7241 26.384 69.3481 26.384ZM79.6285 26.366C80.3725 26.366 81.0265 26.516 81.5905 26.816C82.1545 27.104 82.5985 27.482 82.9225 27.95V26.528H85.4605V36.572C85.4605 37.496 85.2745 38.318 84.9025 39.038C84.5305 39.77 83.9725 40.346 83.2285 40.766C82.4845 41.198 81.5845 41.414 80.5285 41.414C79.1125 41.414 77.9485 41.084 77.0365 40.424C76.1365 39.764 75.6265 38.864 75.5065 37.724H78.0085C78.1405 38.18 78.4225 38.54 78.8545 38.804C79.2985 39.08 79.8325 39.218 80.4565 39.218C81.1885 39.218 81.7825 38.996 82.2385 38.552C82.6945 38.12 82.9225 37.46 82.9225 36.572V35.024C82.5985 35.492 82.1485 35.882 81.5725 36.194C81.0085 36.506 80.3605 36.662 79.6285 36.662C78.7885 36.662 78.0205 36.446 77.3245 36.014C76.6285 35.582 76.0765 34.976 75.6685 34.196C75.2725 33.404 75.0745 32.498 75.0745 31.478C75.0745 30.47 75.2725 29.576 75.6685 28.796C76.0765 28.016 76.6225 27.416 77.3065 26.996C78.0025 26.576 78.7765 26.366 79.6285 26.366ZM82.9225 31.514C82.9225 30.902 82.8025 30.38 82.5625 29.948C82.3225 29.504 81.9985 29.168 81.5905 28.94C81.1825 28.7 80.7445 28.58 80.2765 28.58C79.8085 28.58 79.3765 28.694 78.9805 28.922C78.5845 29.15 78.2605 29.486 78.0085 29.93C77.7685 30.362 77.6485 30.878 77.6485 31.478C77.6485 32.078 77.7685 32.606 78.0085 33.062C78.2605 33.506 78.5845 33.848 78.9805 34.088C79.3885 34.328 79.8205 34.448 80.2765 34.448C80.7445 34.448 81.1825 34.334 81.5905 34.106C81.9985 33.866 82.3225 33.53 82.5625 33.098C82.8025 32.654 82.9225 32.126 82.9225 31.514ZM96.5668 40.046C95.4028 38.918 94.4968 37.478 93.8488 35.726C93.2128 33.974 92.8948 32.096 92.8948 30.092C92.8948 28.04 93.2308 26.114 93.9028 24.314C94.5748 22.502 95.5528 21.02 96.8368 19.868H99.3748V20.102C98.0548 21.362 97.0468 22.874 96.3508 24.638C95.6668 26.402 95.3248 28.22 95.3248 30.092C95.3248 31.916 95.6488 33.68 96.2968 35.384C96.9568 37.076 97.8928 38.546 99.1048 39.794V40.046H96.5668ZM103.467 23.936V36.5H100.947V23.936H103.467ZM116.703 36.5H114.183L108.477 27.878V36.5H105.957V23.918H108.477L114.183 32.558V23.918H116.703V36.5ZM123.585 23.936C124.905 23.936 126.063 24.194 127.059 24.71C128.067 25.226 128.841 25.964 129.381 26.924C129.933 27.872 130.209 28.976 130.209 30.236C130.209 31.496 129.933 32.6 129.381 33.548C128.841 34.484 128.067 35.21 127.059 35.726C126.063 36.242 124.905 36.5 123.585 36.5H119.193V23.936H123.585ZM123.495 34.358C124.815 34.358 125.835 33.998 126.555 33.278C127.275 32.558 127.635 31.544 127.635 30.236C127.635 28.928 127.275 27.908 126.555 27.176C125.835 26.432 124.815 26.06 123.495 26.06H121.713V34.358H123.495ZM131.448 40.046V39.794C132.66 38.546 133.59 37.076 134.238 35.384C134.898 33.68 135.228 31.916 135.228 30.092C135.228 28.22 134.88 26.402 134.184 24.638C133.5 22.874 132.498 21.362 131.178 20.102V19.868H133.716C135 21.02 135.978 22.502 136.65 24.314C137.322 26.114 137.658 28.04 137.658 30.092C137.658 32.096 137.334 33.974 136.686 35.726C136.05 37.478 135.15 38.918 133.986 40.046H131.448Z" fill="#374557"/>
<path d="M167.998 32.4999L167.997 32.4999C167.931 32.5003 167.866 32.4877 167.805 32.4628C167.744 32.4381 167.689 32.4016 167.643 32.3555C167.642 32.3553 167.642 32.3551 167.642 32.3549L163.643 28.3564C163.549 28.2619 163.496 28.1336 163.496 27.9999C163.496 27.8662 163.549 27.738 163.643 27.6435C163.738 27.549 163.866 27.4958 164 27.4958C164.134 27.4958 164.262 27.5489 164.356 27.6433C164.356 27.6433 164.356 27.6434 164.356 27.6435L167.646 30.943L167.999 31.2976L168.353 30.9435L171.627 27.6695C171.721 27.5943 171.839 27.5552 171.96 27.5599C172.086 27.5647 172.205 27.6169 172.294 27.7059C172.383 27.795 172.435 27.9143 172.44 28.0402C172.445 28.1607 172.406 28.2786 172.33 28.3724L168.348 32.3549C168.348 32.3551 168.347 32.3553 168.347 32.3555C168.254 32.4475 168.129 32.4994 167.998 32.4999Z" fill="#A098AE" stroke="#A098AE"/>
</svg>
